<?xml version="1.0" encoding="utf-8" ?>
<svg baseProfile="tiny" height="150" version="1.2" width="200" xmlns="http://www.w3.org/2000/svg" xmlns:ev="http://www.w3.org/2001/xml-events" xmlns:xlink="http://www.w3.org/1999/xlink"><defs /><line stroke="black" stroke-width="2" x1="0" x2="50" y1="0" y2="0" /><line stroke="black" stroke-width="2" x1="0" x2="0" y1="0" y2="50" /><line stroke="black" stroke-width="2" x1="50" x2="100" y1="0" y2="0" /><line stroke="black" stroke-width="2" x1="100" x2="100" y1="0" y2="50" /><line stroke="black" stroke-width="2" x1="100" x2="100" y1="0" y2="50" /><line stroke="black" stroke-width="2" x1="150" x2="150" y1="0" y2="50" /><rect fill="red" height="50" opacity="0.3" width="50" x="100" y="0" /><text fill="black" font-size="20" text-anchor="middle" x="125.0" y="33.333333333333336">X</text><line stroke="black" stroke-width="2" x1="150" x2="200" y1="0" y2="0" /><line stroke="black" stroke-width="2" x1="200" x2="200" y1="0" y2="50" /><line stroke="black" stroke-width="2" x1="0" x2="50" y1="100" y2="100" /><line stroke="black" stroke-width="2" x1="0" x2="0" y1="50" y2="100" /><line stroke="black" stroke-width="2" x1="50" x2="50" y1="50" y2="100" /><line stroke="black" stroke-width="2" x1="50" x2="50" y1="50" y2="100" /><line stroke="black" stroke-width="2" x1="100" x2="100" y1="50" y2="100" /><line stroke="black" stroke-width="2" x1="100" x2="150" y1="100" y2="100" /><line stroke="black" stroke-width="2" x1="100" x2="100" y1="50" y2="100" /><line stroke="black" stroke-width="2" x1="200" x2="200" y1="50" y2="100" /><line stroke="black" stroke-width="2" x1="0" x2="50" y1="100" y2="100" /><line stroke="black" stroke-width="2" x1="0" x2="0" y1="100" y2="150" /><rect fill="green" height="50" opacity="0.3" width="50" x="0" y="100" /><text fill="black" font-size="20" text-anchor="middle" x="25.0" y="133.33333333333334">E</text><line stroke="black" stroke-width="2" x1="50" x2="100" y1="150" y2="150" /><line stroke="black" stroke-width="2" x1="100" x2="150" y1="100" y2="100" /><line stroke="black" stroke-width="2" x1="100" x2="150" y1="150" y2="150" /><line stroke="black" stroke-width="2" x1="150" x2="200" y1="150" y2="150" /><line stroke="black" stroke-width="2" x1="200" x2="200" y1="100" y2="150" /></svg>